<svg width="100" height="75" viewBox="-6 0 100 37" fill="none" xmlns="http://www.w3.org/2000/svg">
<g clip-path="url(#clip0_36_2657)">
<path d="M75.3236 17.3352C78.7659 17.3352 81.5552 20.5937 81.5552 24.6152C81.5552 28.6367 78.7659 31.8952 75.3236 31.8952C71.8812 31.8952 69.0919 28.6367 69.0919 24.6152C69.0919 20.5937 71.8812 17.3352 75.3236 17.3352ZM75.3236 27.0388C76.4685 27.0388 77.3982 25.9527 77.3982 24.6152C77.3982 23.2777 76.4685 22.1915 75.3236 22.1915C74.1787 22.1915 73.2489 23.2777 73.2489 24.6152C73.2489 25.9527 74.1787 27.0388 75.3236 27.0388Z" fill="#091012"/>
<path d="M73.6487 17.0393C69.4226 17.2189 68.5159 23.8615 68.3161 25.0374C68.1778 25.8453 67.5631 26.2044 67.1943 26.357C67.0406 26.4198 66.8869 26.4468 66.7255 26.4468L30.8342 26.3301C33.3007 26.1056 35.4522 23.9513 35.7134 21.0429L68.6388 20.9262C68.8079 20.9262 69.0999 20.7646 69.0999 20.5761C69.0999 20.3786 68.7925 20.226 68.6235 20.226H68.7925H68.6158L35.7288 20.3696C35.7288 20.3068 35.7288 20.244 35.7288 20.1811C35.7979 15.1992 31.5257 12.3805 27.6915 12.4882C21.1141 12.3715 14.4521 12.6678 8.04379 14.49C29.3435 -3.07708 48.899 0.935429 53.0943 2.08443C53.6168 2.22805 54.1009 2.53325 54.4928 2.95515L59.3567 8.26926C59.3567 8.26926 76.8222 8.56549 80.2953 9.14896C83.7684 9.74142 83.8145 12.7396 83.8145 12.7396L84.8211 13.4487C85.4742 15.3877 84.8749 17.919 84.8749 17.919C84.8749 17.919 85.1284 19.3284 84.6213 22.9728C84.3523 24.9207 83.6531 25.5312 83.0538 25.6658C82.5697 25.7825 82.1163 25.3337 82.1087 24.7502C82.0549 21.2404 80.9868 19.1039 79.6575 18.2691C76.5225 16.3122 73.6487 17.0304 73.6487 17.0304V17.0393ZM56.4906 9.72346C55.8452 8.88864 54.2008 6.78813 53.2634 5.71993C52.0801 4.36447 50.2974 4.31061 50.2974 4.31061C33.6772 2.90129 27.4225 6.84199 25.6629 8.43982C25.3095 8.754 25.2173 9.3285 25.4401 9.77732L25.8857 10.7199C26.0164 10.9802 26.2623 11.1418 26.5158 11.1238C31.4028 10.7917 53.1251 10.1723 56.3677 10.0825C56.529 10.0825 56.6059 9.85811 56.4983 9.72346H56.4906Z" fill="#091012"/>
<path d="M29.8969 26.3284H30.8267C30.5193 26.356 30.212 26.3652 29.8969 26.3284Z" fill="#CCBEA8"/>
<path d="M1.21201 20.6066C1.3119 20.4989 1.44253 20.4361 1.57315 20.4361H1.7883V20.3194C2.34154 17.6713 5.56108 16.6121 5.56108 16.6121C6.39094 15.867 7.2208 15.1579 8.05066 14.4756C14.5435 13.3626 21.1363 13.1561 27.6906 13.3626C31.4557 13.2459 35.0825 15.7413 35.2285 20.3553L26.807 20.3912L16.9409 20.4361L4.20103 20.4899C4.03199 20.4899 3.53254 20.5887 3.53254 20.7862C3.53254 20.9836 3.89368 21.1362 4.22409 21.1362L16.5567 21.0914L27.1989 21.0555L35.2208 21.0285C34.9288 24.1793 32.5699 26.2888 29.9036 26.3067C29.6731 26.3067 29.4579 26.1721 29.3196 25.9566C29.0584 25.5347 28.5666 25.2924 28.0979 25.1308C27.9596 29.0087 25.2395 32.1056 21.8816 32.1056C18.5238 32.1056 15.8882 29.1074 15.6731 25.3103C15.3811 25.4899 15.1582 25.6873 15.0046 25.8399C14.8355 26.0105 14.6127 26.1003 14.3899 26.0823C8.21202 25.4091 4.71585 24.5922 3.10224 24.1254V24.2152C3.10224 24.4037 2.96393 24.5383 2.81026 24.5024C2.29544 24.3768 1.24274 23.9998 0.774029 22.9315C0.282261 21.8185 0.896969 20.9388 1.21201 20.5887V20.6066ZM21.8739 27.2762C23.0188 27.2762 23.9409 26.199 23.9486 24.8615C22.65 24.8436 21.1209 24.8256 19.7993 24.8346C19.7993 24.8346 19.7993 24.8436 19.7993 24.8525C19.7993 26.19 20.729 27.2762 21.8739 27.2762Z" fill="#091012"/>
</g>
<defs>
<clipPath id="clip0_36_2657">
<rect width="84.538" height="31.2563" fill="white" transform="matrix(-1 0 0 1 85.1277 0.871826)"/>
</clipPath>
</defs>
</svg>
